<svg width="37" height="30" viewBox="0 0 37 30" fill="none" xmlns="http://www.w3.org/2000/svg">
<path d="M33.8218 8.18251C33.8705 8.23117 33.8704 8.28016 33.8704 8.32882C34.0168 8.71909 37.4801 18.3772 36.9436 23.694C36.8949 24.2306 36.4557 24.6209 35.9191 24.6209H35.8214C35.2362 24.5722 34.8459 24.0843 34.8945 23.4991C35.3825 18.9138 32.3093 10.085 31.9676 9.15823C31.7237 8.76796 31.2361 8.0851 30.5532 8.28039C30.2606 8.37804 30.0653 8.52435 29.919 8.81697C29.7727 9.06093 29.7241 9.35355 29.8214 9.64616L30.4066 11.6462C30.5529 12.1827 30.2603 12.768 29.7237 12.9143C29.1871 13.0606 28.6019 12.768 28.4556 12.2314L27.8703 10.2314C27.8217 10.1338 27.8217 10.0365 27.7727 9.88982C27.724 9.84116 27.724 9.79216 27.724 9.69485L27.3338 8.37775C27.2361 8.08513 27.0898 7.88982 26.7972 7.74352C26.5532 7.59721 26.2606 7.54856 25.968 7.64587C25.6754 7.74352 25.4801 7.88983 25.3338 8.18245C25.1875 8.42641 25.1388 8.71903 25.2361 9.01164L25.5287 10.0848L26.3579 12.8163C26.5042 13.3529 26.2116 13.9381 25.675 14.0844C25.5774 14.1331 25.4801 14.1331 25.3824 14.1331C24.9435 14.1331 24.5532 13.8405 24.4069 13.4015L22.8949 8.27972C22.7972 7.9871 22.6509 7.79179 22.3583 7.64549C22.1144 7.49919 21.8217 7.45053 21.5291 7.54784C20.9925 7.69415 20.6513 8.27938 20.7486 8.81599L22.163 13.6451C22.3093 14.1817 22.0167 14.767 21.4801 14.9133C20.9435 15.0596 20.3583 14.767 20.212 14.2304L16.8952 2.9626C16.7976 2.66998 16.6512 2.47468 16.3586 2.32838C16.1147 2.18207 15.822 2.13341 15.5294 2.23072C15.2368 2.32838 15.0415 2.47468 14.8952 2.7673C14.7489 3.05992 14.7002 3.30388 14.7976 3.59649L19.5778 19.8397C19.7241 20.2786 19.5291 20.7666 19.1388 21.0105C18.7486 21.2544 18.212 21.2054 17.9194 20.8642L13.4804 16.6205C13.2365 16.3766 12.9925 16.2789 12.7489 16.2789C12.5049 16.2789 12.261 16.4252 12.1147 16.5715C11.8707 16.8642 12.066 17.6447 12.505 18.3276C12.6999 18.6202 17.6754 25.4494 21.5777 27.5955C22.0657 27.8881 22.2606 28.4733 21.968 28.9613C21.773 29.3029 21.4314 29.4978 21.0902 29.4978C20.9439 29.4978 20.7486 29.4492 20.6023 29.3515C16.261 26.9613 11.0417 19.791 10.8466 19.4983C9.77344 17.9372 9.6758 16.2788 10.5539 15.2057C11.0905 14.5715 11.8711 14.2302 12.6512 14.1812C13.4804 14.1325 14.2609 14.4738 14.8952 15.059L16.5536 16.6201L12.8465 4.03526C12.6026 3.25473 12.7002 2.37688 13.0905 1.64503C13.4808 0.913496 14.1636 0.376881 14.9442 0.132989C15.7247 -0.110973 16.6025 -0.0133201 17.3344 0.376951C18.0659 0.767222 18.6025 1.45008 18.8464 2.23062L19.9196 5.889C20.2122 5.69404 20.5538 5.49873 20.895 5.40108C21.6756 5.15711 22.5534 5.25477 23.2853 5.64504C23.5779 5.79135 23.8705 6.03531 24.0658 6.27926C24.4074 5.93765 24.8463 5.69403 25.334 5.54773C26.1145 5.30376 26.9923 5.40142 27.7242 5.79169C28.1631 6.03565 28.5047 6.37692 28.7973 6.76717C29.1389 6.47455 29.4802 6.27925 29.9191 6.18193C31.4312 5.84169 32.8946 6.57356 33.8215 8.18298L33.8218 8.18251ZM6.31076 21.4015C6.01815 20.9135 5.38389 20.7672 4.89636 21.0112L4.21348 21.4015C5.62788 15.7921 7.96951 10.6214 11.1886 6.03626C11.5302 5.59733 11.3836 4.91444 10.9447 4.62186C10.5057 4.28025 9.82285 4.42689 9.53026 4.86582C6.16446 9.64602 3.72554 15.0605 2.26219 20.9139L1.92057 20.3287C1.62796 19.8408 0.993698 19.6945 0.506175 19.9384C0.0182513 20.231 -0.128049 20.8653 0.115904 21.3528L1.67699 24.0843C1.8233 24.3769 2.11591 24.5233 2.40852 24.5722H2.55483C2.7498 24.5722 2.89645 24.5236 3.09141 24.4259L5.92056 22.7676C6.40849 22.4746 6.60344 21.8894 6.31083 21.4014L6.31076 21.4015Z" fill="#30343F"/>
</svg>